<svg xmlns="http://www.w3.org/2000/svg" viewBox="0 0 64 64" role="img" aria-label="Cretaceo Infectado">
  <defs>
    <radialGradient id="bg" cx="50%" cy="42%" r="62%">
      <stop offset="0%" stop-color="#3a1024"/>
      <stop offset="55%" stop-color="#140810"/>
      <stop offset="100%" stop-color="#0a070c"/>
    </radialGradient>
    <radialGradient id="eye" cx="50%" cy="50%" r="50%">
      <stop offset="0%" stop-color="#f6ffb0"/>
      <stop offset="35%" stop-color="#9dff33"/>
      <stop offset="70%" stop-color="#6f8f2e"/>
      <stop offset="100%" stop-color="#2a3a12"/>
    </radialGradient>
  </defs>
  <rect width="64" height="64" rx="12" fill="url(#bg)"/>
  <g stroke="#e0a23a" stroke-width="1.6" stroke-linecap="round" fill="none" opacity="0.9">
    <circle cx="32" cy="32" r="22"/>
    <circle cx="32" cy="32" r="14" opacity="0.55"/>
    <path d="M32 6v10M32 48v10M6 32h10M48 32h10"/>
    <circle cx="32" cy="18" r="1.2" fill="#e8dcc0" stroke="none"/>
    <circle cx="32" cy="46" r="1.2" fill="#e8dcc0" stroke="none"/>
    <circle cx="18" cy="32" r="1.2" fill="#e8dcc0" stroke="none"/>
    <circle cx="46" cy="32" r="1.2" fill="#e8dcc0" stroke="none"/>
  </g>
  <circle cx="32" cy="32" r="9.5" fill="url(#eye)"/>
  <circle cx="32" cy="32" r="3.2" fill="#0a070c"/>
  <circle cx="30.2" cy="30.2" r="1.1" fill="#d8e8a0" opacity="0.85"/>
  <g fill="#7ea33a" opacity="0.55">
    <circle cx="14" cy="16" r="1.1"/>
    <circle cx="50" cy="18" r="0.9"/>
    <circle cx="48" cy="48" r="1.2"/>
    <circle cx="16" cy="46" r="0.8"/>
  </g>
</svg>
